<svg xmlns="http://www.w3.org/2000/svg" viewBox="0 0 500 100" width="200" height="40">
  <rect width="100%" height="100%" fill="none" />
  <!-- M -->
  <path d="M30,20 L40,20 L50,40 L60,20 L70,20 L70,80 L60,80 L60,40 L50,60 L40,40 L40,80 L30,80 Z" fill="#55a630" />
  <!-- F -->
  <path d="M80,20 L120,20 L120,30 L90,30 L90,45 L110,45 L110,55 L90,55 L90,80 L80,80 Z" fill="#55a630" />
  
  <!-- Fusion text -->
  <text x="140" y="60" font-family="Arial, sans-serif" font-size="32" font-weight="bold" fill="#80b918">FUSION</text>
  
  <!-- Decorative cube blocks -->
  <rect x="320" y="20" width="20" height="20" fill="#55a630" stroke="#2d3142" stroke-width="2" />
  <rect x="340" y="20" width="20" height="20" fill="#80b918" stroke="#2d3142" stroke-width="2" />
  <rect x="360" y="20" width="20" height="20" fill="#aaff00" stroke="#2d3142" stroke-width="2" />
  <rect x="320" y="40" width="20" height="20" fill="#80b918" stroke="#2d3142" stroke-width="2" />
  <rect x="340" y="40" width="20" height="20" fill="#aaff00" stroke="#2d3142" stroke-width="2" />
  <rect x="360" y="40" width="20" height="20" fill="#55a630" stroke="#2d3142" stroke-width="2" />
  <rect x="320" y="60" width="20" height="20" fill="#aaff00" stroke="#2d3142" stroke-width="2" />
  <rect x="340" y="60" width="20" height="20" fill="#55a630" stroke="#2d3142" stroke-width="2" />
  <rect x="360" y="60" width="20" height="20" fill="#80b918" stroke="#2d3142" stroke-width="2" />
</svg>